<svg width="659" height="131" viewBox="0 0 659 131" fill="none" xmlns="http://www.w3.org/2000/svg">
<path d="M225.213 104.602C224.668 105.636 223.595 106.283 222.426 106.283H208.173C205.8 106.283 204.278 103.76 205.385 101.661L244.262 27.9574C245.433 25.7372 248.603 25.7102 249.811 27.9101L290.308 101.614C291.462 103.714 289.942 106.283 287.546 106.283H273.161C272.011 106.283 270.953 105.657 270.399 104.649L247.332 62.6679L225.213 104.602Z" fill="#0B0B0D"/>
<path fill-rule="evenodd" clip-rule="evenodd" d="M435.965 107.334C458.303 107.334 476.412 89.2251 476.412 66.8869C476.412 44.5487 458.303 26.44 435.965 26.44C413.627 26.44 395.518 44.5487 395.518 66.8869C395.518 89.2251 413.627 107.334 435.965 107.334ZM435.965 88.4235C447.859 88.4235 457.502 78.7812 457.502 66.8869C457.502 54.9925 447.859 45.3502 435.965 45.3502C424.071 45.3502 414.428 54.9925 414.428 66.8869C414.428 78.7812 424.071 88.4235 435.965 88.4235Z" fill="#0B0B0D"/>
<path fill-rule="evenodd" clip-rule="evenodd" d="M535.769 107.334C558.107 107.334 576.216 89.2251 576.216 66.8869C576.216 44.5487 558.107 26.44 535.769 26.44C513.431 26.44 495.322 44.5487 495.322 66.8869C495.322 89.2251 513.431 107.334 535.769 107.334ZM535.769 88.4235C547.663 88.4235 557.305 78.7812 557.305 66.8869C557.305 54.9925 547.663 45.3502 535.769 45.3502C523.874 45.3502 514.232 54.9925 514.232 66.8869C514.232 78.7812 523.874 88.4235 535.769 88.4235Z" fill="#0B0B0D"/>
<path d="M316.765 27.4906C315.024 27.4906 313.613 28.9016 313.613 30.6423V103.131C313.613 104.872 315.024 106.283 316.765 106.283H329.371C331.112 106.283 332.523 104.872 332.523 103.131V74.4984L357.523 105.124C358.121 105.858 359.018 106.283 359.964 106.283H376.238C378.895 106.283 380.36 103.197 378.679 101.138L348.174 63.7679L376.048 32.7488C377.871 30.7201 376.431 27.4906 373.704 27.4906H356.755C355.861 27.4906 355.008 27.8705 354.411 28.5357L332.523 52.893V30.6423C332.523 28.9016 331.112 27.4906 329.371 27.4906H316.765Z" fill="#0B0B0D"/>
<path d="M597.703 30.6423C597.703 28.9016 599.114 27.4906 600.854 27.4906H613.461C615.202 27.4906 616.613 28.9016 616.613 30.6423V87.373H655.348C657.088 87.373 658.5 88.784 658.5 90.5247V103.131C658.5 104.872 657.088 106.283 655.348 106.283H600.854C599.114 106.283 597.703 104.872 597.703 103.131V30.6423Z" fill="#0B0B0D"/>
<path fill-rule="evenodd" clip-rule="evenodd" d="M120.498 42.0664C120.493 18.8328 101.656 0 78.4213 0C55.1829 0 36.3445 18.8384 36.3445 42.0768C36.3445 42.0844 36.3445 42.092 36.3445 42.0996C16.1497 46.3928 1 64.329 1 85.8037C1 110.48 21.0044 130.485 45.6811 130.485L45.7859 130.485C45.8225 130.485 45.8591 130.485 45.8958 130.485H111.104C111.141 130.485 111.177 130.485 111.214 130.485L111.319 130.485C135.996 130.485 156 110.48 156 85.8037C156 64.2733 140.772 46.2997 120.498 42.0664ZM101.984 42.0991C101.984 42.0917 101.984 42.0842 101.984 42.0768C101.984 29.0633 91.4348 18.5138 78.4213 18.5138C65.4114 18.5138 54.8642 29.0575 54.8583 42.066C64.1111 43.9976 72.3131 48.7913 78.4963 55.4791L78.5 55.4754L78.5037 55.4791C84.6518 48.8293 92.7959 44.052 101.984 42.0991ZM19.5138 85.8037C19.5138 94.2497 23.5153 101.761 29.7259 106.546C30.5571 104.521 31.8147 102.584 33.5425 100.84L65.4429 68.6508C60.6452 63.1282 53.571 59.6364 45.6811 59.6364C31.2293 59.6364 19.5138 71.3519 19.5138 85.8037ZM123.458 100.84L91.5571 68.6508C96.3548 63.1282 103.429 59.6364 111.319 59.6364C125.771 59.6364 137.486 71.3519 137.486 85.8037C137.486 94.2497 133.485 101.761 127.274 106.546C126.443 104.521 125.185 102.584 123.458 100.84ZM78.5 81.7767L48.5765 111.971H108.423L78.5 81.7767Z" fill="url(#paint0_radial_6442_8738)"/>
<mask id="mask0_6442_8738" style="mask-type:alpha" maskUnits="userSpaceOnUse" x="1" y="0" width="155" height="131">
<path fill-rule="evenodd" clip-rule="evenodd" d="M120.498 42.0664C120.493 18.8328 101.656 0 78.4213 0C55.1829 0 36.3445 18.8384 36.3445 42.0768C36.3445 42.0844 36.3445 42.092 36.3445 42.0996C16.1497 46.3928 1 64.329 1 85.8037C1 110.48 21.0044 130.485 45.6811 130.485L45.7859 130.485C45.8225 130.485 45.8591 130.485 45.8958 130.485H111.104C111.141 130.485 111.177 130.485 111.214 130.485L111.319 130.485C135.996 130.485 156 110.48 156 85.8037C156 64.2733 140.772 46.2997 120.498 42.0664ZM101.984 42.0991C101.984 42.0917 101.984 42.0842 101.984 42.0768C101.984 29.0633 91.4348 18.5138 78.4213 18.5138C65.4114 18.5138 54.8642 29.0575 54.8583 42.066C64.1111 43.9976 72.3131 48.7913 78.4963 55.4791L78.5 55.4754L78.5037 55.4791C84.6518 48.8293 92.7959 44.052 101.984 42.0991ZM19.5138 85.8037C19.5138 94.2497 23.5153 101.761 29.7259 106.546C30.5571 104.521 31.8147 102.584 33.5425 100.84L65.4429 68.6508C60.6452 63.1282 53.571 59.6364 45.6811 59.6364C31.2293 59.6364 19.5138 71.3519 19.5138 85.8037ZM123.458 100.84L91.5571 68.6508C96.3548 63.1282 103.429 59.6364 111.319 59.6364C125.771 59.6364 137.486 71.3519 137.486 85.8037C137.486 94.2497 133.485 101.761 127.274 106.546C126.443 104.521 125.185 102.584 123.458 100.84ZM78.5 81.7767L48.5765 111.971H108.423L78.5 81.7767Z" fill="url(#paint1_radial_6442_8738)"/>
</mask>
<g mask="url(#mask0_6442_8738)">
<path d="M61.0281 37.0276L78.841 55.1205L54.8573 79.3347L36.7643 61.3901L61.0281 37.0276Z" fill="url(#paint2_linear_6442_8738)"/>
<path d="M138.591 21.0386H86.8369V48.4207C93.8685 43.8064 102.28 41.1225 111.319 41.1225C121.587 41.1225 131.046 44.586 138.591 50.4085V21.0386Z" fill="url(#paint3_linear_6442_8738)"/>
<path d="M110.924 130.471C120.632 130.097 128.385 122.28 128.385 112.691C128.385 108.322 126.776 104.321 124.105 101.224H158.373V130.485H110.924V130.471Z" fill="url(#paint4_linear_6442_8738)"/>
</g>
<defs>
<radialGradient id="paint0_radial_6442_8738" cx="0" cy="0" r="1" gradientUnits="userSpaceOnUse" gradientTransform="translate(8.57382 122.024) rotate(-30.1602) scale(144.048 170.989)">
<stop stop-color="#2BCBFF"/>
<stop offset="1" stop-color="#7542FF"/>
</radialGradient>
<radialGradient id="paint1_radial_6442_8738" cx="0" cy="0" r="1" gradientUnits="userSpaceOnUse" gradientTransform="translate(8.57382 122.024) rotate(-30.1602) scale(144.048 170.989)">
<stop stop-color="#2BCBFF"/>
<stop offset="1" stop-color="#7542FF"/>
</radialGradient>
<linearGradient id="paint2_linear_6442_8738" x1="57.8026" y1="52.5959" x2="71.688" y2="63.3255" gradientUnits="userSpaceOnUse">
<stop stop-opacity="0"/>
<stop offset="1" stop-opacity="0.2"/>
</linearGradient>
<linearGradient id="paint3_linear_6442_8738" x1="112.714" y1="25.2463" x2="112.714" y2="42.7081" gradientUnits="userSpaceOnUse">
<stop stop-opacity="0"/>
<stop offset="1" stop-opacity="0.3"/>
</linearGradient>
<linearGradient id="paint4_linear_6442_8738" x1="139.433" y1="109.399" x2="119.236" y2="123.915" gradientUnits="userSpaceOnUse">
<stop stop-opacity="0"/>
<stop offset="1" stop-opacity="0.4"/>
</linearGradient>
</defs>
</svg>
