<svg width="170" height="32" viewBox="0 0 170 32" fill="none" xmlns="http://www.w3.org/2000/svg">
<path d="M57.7192 12.3652L45.4999 31.7313H50.0427L57.7192 19.3241L65.3957 31.7313H69.9385L57.7192 12.3652Z" fill="currentColor"/>
<path d="M90.7532 12.4814L82.8512 20.3571V12.4814H79.492V31.4492H82.8512V23.5998L90.7532 31.4492H95.5177L86.0338 21.9653L95.5177 12.4814H90.7532Z" fill="currentColor"/>
<path d="M111.617 12.4813C108.987 12.4813 106.733 13.4207 104.922 15.2693C103.073 17.118 102.133 19.3725 102.133 21.9652C102.133 24.5578 103.073 26.8311 104.922 28.661C106.755 30.5097 109.006 31.4491 111.617 31.4491C114.229 31.4491 116.483 30.5097 118.313 28.661C120.181 26.8461 121.128 24.5917 121.128 21.9614C121.128 19.3312 120.181 17.1143 118.313 15.2656C116.48 13.4169 114.229 12.4775 111.617 12.4775V12.4813ZM115.92 26.2938C114.729 27.4661 113.282 28.0636 111.617 28.0636C109.953 28.0636 108.495 27.4699 107.289 26.2975C106.116 25.0876 105.519 23.6335 105.519 21.9689C105.519 20.3044 106.113 18.8577 107.285 17.6666C108.495 16.4755 109.949 15.8705 111.614 15.8705C113.278 15.8705 114.725 16.4755 115.916 17.6666C117.107 18.8577 117.712 20.3044 117.712 21.9689C117.712 23.6335 117.107 25.0876 115.916 26.2975L115.92 26.2938Z" fill="currentColor"/>
<path d="M139.598 12.4813C136.968 12.4813 134.713 13.4207 132.902 15.2693C131.053 17.118 130.114 19.3725 130.114 21.9652C130.114 24.5578 131.053 26.8311 132.902 28.661C134.736 30.5097 136.986 31.4491 139.598 31.4491C142.209 31.4491 144.464 30.5097 146.294 28.661C148.161 26.8461 149.108 24.5917 149.108 21.9614C149.108 19.3312 148.161 17.1143 146.294 15.2656C144.46 13.4169 142.209 12.4775 139.598 12.4775V12.4813ZM143.9 26.2938C142.709 27.4661 141.262 28.0636 139.598 28.0636C137.933 28.0636 136.475 27.4699 135.269 26.2975C134.097 25.0876 133.499 23.6335 133.499 21.9689C133.499 20.3044 134.093 18.8577 135.265 17.6666C136.475 16.4755 137.929 15.8705 139.594 15.8705C141.259 15.8705 142.705 16.4755 143.896 17.6666C145.087 18.8577 145.692 20.3044 145.692 21.9689C145.692 23.6335 145.087 25.0876 143.896 26.2975L143.9 26.2938Z" fill="currentColor"/>
<path d="M160.648 28.0637V12.4814H157.285V31.4492H170V28.0637H160.648Z" fill="currentColor"/>
<path d="M3.48404 20.3901C3.48404 17.1316 5.41099 14.3207 8.18121 13.0225C8.12573 12.5602 8.09614 12.0868 8.09614 11.6097C8.09614 10.7997 8.18121 10.0119 8.33655 9.25C3.52473 10.6665 0 15.127 0 20.3901C0 23.8556 1.5275 26.9735 3.94636 29.1038L6.28755 26.526C4.57142 25.0354 3.48404 22.8385 3.48404 20.3937V20.3901Z" fill="url(#paint0_linear_885_753)"/>
<path d="M31.2105 13.1523C33.8439 14.4986 35.6488 17.2355 35.6488 20.3904C35.6488 22.5244 34.8203 24.4662 33.474 25.916L35.9373 28.3829C37.916 26.3006 39.1328 23.486 39.1328 20.3904C39.1328 15.2309 35.7523 10.8518 31.0885 9.34277C31.2327 10.0751 31.3104 10.837 31.3104 11.61C31.3104 12.1315 31.2734 12.6456 31.2068 13.1523H31.2105Z" fill="url(#paint1_linear_885_753)"/>
<path d="M35.3199 22.6982C34.9574 23.9151 34.3213 25.0135 33.4817 25.9197L35.945 28.3866C37.4207 26.8369 38.4674 24.8767 38.9075 22.7019H35.3236L35.3199 22.6982Z" fill="url(#paint2_linear_885_753)"/>
<path d="M12.0851 8.79147C13.2354 5.69578 16.2164 3.48404 19.7078 3.48404C23.1993 3.48404 26.1766 5.69208 27.3269 8.78407C27.3934 8.78407 27.46 8.78407 27.5266 8.78407C28.7693 8.78407 29.9676 8.98009 31.0957 9.34625C30.0379 4.02403 25.3333 0 19.7078 0C14.0823 0 9.43324 3.97595 8.33847 9.25009C9.37776 8.94311 10.4762 8.78037 11.6117 8.78037C11.7707 8.78037 11.9261 8.78407 12.0851 8.79147Z" fill="url(#paint3_linear_885_753)"/>
<path d="M24.2369 0.920898V4.86726C25.635 5.81039 26.726 7.17516 27.3252 8.78033C27.3918 8.78033 27.4584 8.78033 27.5249 8.78033C28.7676 8.78033 29.966 8.97635 31.094 9.34251C30.3395 5.54409 27.721 2.40402 24.2369 0.920898Z" fill="url(#paint4_linear_885_753)"/>
<path d="M8.18142 13.0262C9.22441 12.538 10.3821 12.2643 11.6063 12.2643C11.5878 12.0498 11.5767 11.8316 11.5767 11.6097C11.5767 10.6185 11.7542 9.66793 12.0834 8.79137C11.9281 8.78397 11.769 8.78027 11.61 8.78027C10.4745 8.78027 9.37605 8.94671 8.33676 9.24999C8.17772 10.0119 8.09635 10.7997 8.09635 11.6097C8.09635 12.0868 8.12594 12.5602 8.18142 13.0225V13.0262Z" fill="url(#paint5_linear_885_753)"/>
<path d="M27.3229 8.78376C27.6521 9.66402 27.8296 10.6182 27.8296 11.6095C27.8296 11.8314 27.8185 12.0533 27.8 12.2678C29.0242 12.3085 30.1782 12.6229 31.2101 13.1481C31.2766 12.6451 31.3136 12.1273 31.3136 11.6058C31.3136 10.8291 31.236 10.0709 31.0917 9.33855C29.9674 8.97609 28.769 8.77637 27.5226 8.77637C27.456 8.77637 27.3895 8.77637 27.3229 8.77637V8.78376Z" fill="url(#paint6_linear_885_753)"/>
<path d="M12.0848 8.79199C11.7593 9.67225 11.5781 10.6191 11.5781 11.6103C11.5781 11.8322 11.5892 12.0467 11.6077 12.2649C13.5568 12.2649 15.3506 12.9566 16.7524 14.1068C16.9077 14.2326 17.0557 14.3657 17.1999 14.5026L18.8347 12.7014C18.8976 12.6311 18.9604 12.5608 19.0233 12.4942L19.1676 12.3352C19.2896 12.2132 19.4117 12.0911 19.5374 11.9727C19.5448 11.9654 19.5522 11.958 19.5633 11.9506C17.592 10.0902 14.9697 8.91404 12.0774 8.79569L12.0848 8.79199Z" fill="url(#paint7_linear_885_753)"/>
<path d="M35.9375 28.383L33.4742 25.916C32.6679 26.7852 31.673 27.4768 30.5598 27.9243L33.1636 30.5318C34.1955 29.9548 35.1275 29.2299 35.9375 28.3793V28.383Z" fill="url(#paint8_linear_885_753)"/>
<path d="M21.6015 14.8314C21.6422 14.787 21.6829 14.7426 21.7273 14.7019C21.7273 14.7019 21.7273 14.7019 21.7273 14.6982L21.6052 14.8314H21.6015Z" fill="url(#paint9_linear_885_753)"/>
<path d="M18.8385 12.7003L19.0272 12.4932C18.9643 12.5634 18.9014 12.63 18.8385 12.7003Z" fill="url(#paint10_linear_885_753)"/>
<path d="M27.6416 20.0758L25.1784 17.6126L22.005 14.4355C21.9089 14.5243 21.8164 14.6131 21.7276 14.7055C21.6869 14.7499 21.6426 14.7906 21.6019 14.835L21.4169 15.0384L19.6379 16.9986L19.9893 17.35L22.0346 19.399L23.2144 20.5788L24.7161 22.0842L30.5561 27.9316C31.673 27.4804 32.6643 26.7887 33.4705 25.9233L27.6342 20.0832L27.6416 20.0758Z" fill="url(#paint11_linear_885_753)"/>
<path d="M6.28651 26.5225L3.94532 29.1004C4.82928 29.8771 5.82789 30.5243 6.91896 31.0088L9.44877 28.2238C8.26523 27.8983 7.18895 27.3066 6.28651 26.5225Z" fill="url(#paint12_linear_885_753)"/>
<path d="M21.6015 14.8311C21.5387 14.8976 21.4795 14.9642 21.4166 15.0345L21.6015 14.8311Z" fill="url(#paint13_linear_885_753)"/>
<path d="M19.1676 12.3311L19.0233 12.4901C19.0714 12.4383 19.1232 12.3828 19.1713 12.3311H19.1676Z" fill="url(#paint14_linear_885_753)"/>
<path d="M21.7495 14.6718L21.6718 14.6016C21.6903 14.6348 21.7088 14.6644 21.7273 14.6977L21.7495 14.6718Z" fill="url(#paint15_linear_885_753)"/>
<path d="M27.3224 8.78418C24.3228 8.83596 21.6007 10.0269 19.5665 11.9464C19.5591 11.9538 19.5517 11.9612 19.5406 11.9686C19.4149 12.087 19.2928 12.209 19.1708 12.3348C19.119 12.3866 19.0709 12.4384 19.0228 12.4938L18.8342 12.701L17.1994 14.5021L17.1735 14.528L14.3071 17.6829L11.966 20.2608L6.28128 26.5225C7.18373 27.3065 8.26001 27.8946 9.44355 28.2238L14.9211 22.1914L15.9308 21.0782L17.4398 19.4175L19.1929 17.4869L19.6368 16.9987L21.4158 15.0384C21.475 14.9682 21.5378 14.9016 21.6007 14.835L21.7228 14.7019C21.7043 14.6686 21.6858 14.639 21.6673 14.6057L21.7449 14.676L21.7228 14.7019C21.7228 14.7019 21.7228 14.7019 21.7228 14.7056C21.8115 14.6131 21.904 14.5243 22.0002 14.4356C23.45 13.0893 25.3917 12.2682 27.5184 12.2682C27.6109 12.2682 27.7033 12.2719 27.7958 12.2756C27.8143 12.0574 27.8254 11.8392 27.8254 11.6173C27.8254 10.6224 27.6442 9.67183 27.3187 8.79158L27.3224 8.78418Z" fill="url(#paint16_linear_885_753)"/>
<path d="M30.563 27.9276C29.6236 28.3086 28.5991 28.5194 27.5265 28.5194C25.2593 28.5194 23.2066 27.5837 21.7309 26.082C21.5163 25.8638 21.3129 25.6308 21.1243 25.3867H21.1317C19.6116 23.3747 19.5709 21.5957 19.5709 21.5957C19.5709 21.6993 19.5376 23.3192 18.0952 25.2832C17.8844 25.5643 17.655 25.8305 17.4109 26.082C15.9352 27.5874 13.8825 28.5194 11.6153 28.5194C10.8645 28.5194 10.1433 28.4158 9.45164 28.2235L6.92183 31.0085C8.35687 31.6447 9.94355 31.9997 11.6153 31.9997C14.6925 31.9997 17.4923 30.7977 19.5746 28.8338C21.6532 30.794 24.4567 31.9997 27.5339 31.9997C29.5792 31.9997 31.5024 31.4671 33.1742 30.5351L30.5704 27.9276H30.563Z" fill="url(#paint17_linear_885_753)"/>
<path d="M15.1164 27.7205C14.0549 28.2309 12.8639 28.5194 11.6101 28.5194C10.8593 28.5194 10.1381 28.4158 9.44648 28.2235L6.91666 31.0085C8.3517 31.6447 9.93838 31.9997 11.6101 31.9997C12.8307 31.9997 14.0105 31.8111 15.1164 31.456V27.7168V27.7205Z" fill="url(#paint18_linear_885_753)"/>
<path d="M12.0848 8.79199C11.7593 9.67225 11.5781 10.6191 11.5781 11.6103C11.5781 11.8322 11.5892 12.0467 11.6077 12.2649C13.5568 12.2649 15.3506 12.9566 16.7524 14.1068C16.9077 14.2326 17.0557 14.3657 17.1999 14.5026L18.8347 12.7014C18.8976 12.6311 18.9604 12.5608 19.0233 12.4942L19.1676 12.3352C19.2896 12.2132 19.4117 12.0911 19.5374 11.9727C19.5448 11.9654 19.5522 11.958 19.5633 11.9506C17.592 10.0902 14.9697 8.91404 12.0774 8.79569L12.0848 8.79199Z" fill="url(#paint19_linear_885_753)"/>
<defs>
<linearGradient id="paint0_linear_885_753" x1="29.5145" y1="-1.47581" x2="-3.86498" y2="27.0697" gradientUnits="userSpaceOnUse">
<stop stop-color="#099DFD"/>
<stop offset="1" stop-color="#5E00F2"/>
</linearGradient>
<linearGradient id="paint1_linear_885_753" x1="41.2484" y1="12.2498" x2="7.86893" y2="40.7916" gradientUnits="userSpaceOnUse">
<stop stop-color="#099DFD"/>
<stop offset="1" stop-color="#5E00F2"/>
</linearGradient>
<linearGradient id="paint2_linear_885_753" x1="35.908" y1="25.2946" x2="31.3255" y2="29.3704" gradientUnits="userSpaceOnUse">
<stop stop-color="#2E006C" stop-opacity="0"/>
<stop offset="1" stop-color="#2E006C"/>
</linearGradient>
<linearGradient id="paint3_linear_885_753" x1="29.9085" y1="-1.0134" x2="-3.47101" y2="27.5284" gradientUnits="userSpaceOnUse">
<stop stop-color="#099DFD"/>
<stop offset="1" stop-color="#5E00F2"/>
</linearGradient>
<linearGradient id="paint4_linear_885_753" x1="27.6063" y1="6.30969" x2="27.991" y2="11.5099" gradientUnits="userSpaceOnUse">
<stop stop-color="#2E006C" stop-opacity="0"/>
<stop offset="1" stop-color="#2E006C"/>
</linearGradient>
<linearGradient id="paint5_linear_885_753" x1="27.303" y1="-4.06111" x2="-6.07651" y2="24.4806" gradientUnits="userSpaceOnUse">
<stop stop-color="#099DFD"/>
<stop offset="1" stop-color="#5E00F2"/>
</linearGradient>
<linearGradient id="paint6_linear_885_753" x1="35.5559" y1="5.59191" x2="2.17271" y2="34.1337" gradientUnits="userSpaceOnUse">
<stop stop-color="#099DFD"/>
<stop offset="1" stop-color="#5E00F2"/>
</linearGradient>
<linearGradient id="paint7_linear_885_753" x1="29.7158" y1="-1.24219" x2="-3.66362" y2="27.2996" gradientUnits="userSpaceOnUse">
<stop stop-color="#099DFD"/>
<stop offset="1" stop-color="#5E00F2"/>
</linearGradient>
<linearGradient id="paint8_linear_885_753" x1="45.746" y1="17.5092" x2="12.3666" y2="46.0547" gradientUnits="userSpaceOnUse">
<stop stop-color="#099DFD"/>
<stop offset="1" stop-color="#5E00F2"/>
</linearGradient>
<linearGradient id="paint9_linear_885_753" x1="34.2173" y1="4.028" x2="0.838097" y2="32.5735" gradientUnits="userSpaceOnUse">
<stop stop-color="#099DFD"/>
<stop offset="1" stop-color="#5E00F2"/>
</linearGradient>
<linearGradient id="paint10_linear_885_753" x1="31.9943" y1="1.42336" x2="-1.38525" y2="29.9687" gradientUnits="userSpaceOnUse">
<stop stop-color="#099DFD"/>
<stop offset="1" stop-color="#5E00F2"/>
</linearGradient>
<linearGradient id="paint11_linear_885_753" x1="39.477" y1="10.1748" x2="6.09384" y2="38.7203" gradientUnits="userSpaceOnUse">
<stop stop-color="#099DFD"/>
<stop offset="1" stop-color="#5E00F2"/>
</linearGradient>
<linearGradient id="paint12_linear_885_753" x1="34.7728" y1="4.6788" x2="1.39333" y2="33.2206" gradientUnits="userSpaceOnUse">
<stop stop-color="#099DFD"/>
<stop offset="1" stop-color="#5E00F2"/>
</linearGradient>
<linearGradient id="paint13_linear_885_753" x1="34.2358" y1="4.0497" x2="0.856186" y2="32.5951" gradientUnits="userSpaceOnUse">
<stop stop-color="#099DFD"/>
<stop offset="1" stop-color="#5E00F2"/>
</linearGradient>
<linearGradient id="paint14_linear_885_753" x1="31.972" y1="1.40181" x2="-1.40746" y2="29.9437" gradientUnits="userSpaceOnUse">
<stop stop-color="#099DFD"/>
<stop offset="1" stop-color="#5E00F2"/>
</linearGradient>
<linearGradient id="paint15_linear_885_753" x1="34.1768" y1="3.97922" x2="0.797042" y2="32.5214" gradientUnits="userSpaceOnUse">
<stop stop-color="#099DFD"/>
<stop offset="1" stop-color="#5E00F2"/>
</linearGradient>
<linearGradient id="paint16_linear_885_753" x1="33.817" y1="3.56182" x2="0.437569" y2="32.1036" gradientUnits="userSpaceOnUse">
<stop stop-color="#099DFD"/>
<stop offset="1" stop-color="#5E00F2"/>
</linearGradient>
<linearGradient id="paint17_linear_885_753" x1="41.2888" y1="12.2938" x2="7.90936" y2="40.8356" gradientUnits="userSpaceOnUse">
<stop stop-color="#099DFD"/>
<stop offset="1" stop-color="#5E00F2"/>
</linearGradient>
<linearGradient id="paint18_linear_885_753" x1="11.8099" y1="29.9359" x2="2.32676" y2="23.0973" gradientUnits="userSpaceOnUse">
<stop stop-color="#2E006C" stop-opacity="0"/>
<stop offset="1" stop-color="#2E006C"/>
</linearGradient>
<linearGradient id="paint19_linear_885_753" x1="15.85" y1="12.0097" x2="23.7205" y2="16.2039" gradientUnits="userSpaceOnUse">
<stop stop-color="#2E006C" stop-opacity="0"/>
<stop offset="1" stop-color="#2E006C"/>
</linearGradient>
</defs>
</svg>
