<svg width="777" height="214" viewBox="0 0 777 214" fill="none" xmlns="http://www.w3.org/2000/svg">
<path d="M284.713 146.602C284.168 147.636 283.095 148.283 281.926 148.283H267.673C265.3 148.283 263.778 145.76 264.885 143.661L303.762 69.9574C304.933 67.7372 308.103 67.7102 309.311 69.9101L349.808 143.614C350.962 145.714 349.442 148.283 347.046 148.283H332.661C331.511 148.283 330.453 147.657 329.899 146.649L306.832 104.668L284.713 146.602Z" fill="#0B0B0D"/>
<path fill-rule="evenodd" clip-rule="evenodd" d="M495.465 149.334C517.803 149.334 535.912 131.225 535.912 108.887C535.912 86.5487 517.803 68.44 495.465 68.44C473.127 68.44 455.018 86.5487 455.018 108.887C455.018 131.225 473.127 149.334 495.465 149.334ZM495.465 130.424C507.359 130.424 517.002 120.781 517.002 108.887C517.002 96.9925 507.359 87.3502 495.465 87.3502C483.571 87.3502 473.928 96.9925 473.928 108.887C473.928 120.781 483.571 130.424 495.465 130.424Z" fill="#0B0B0D"/>
<path fill-rule="evenodd" clip-rule="evenodd" d="M595.269 149.334C617.607 149.334 635.716 131.225 635.716 108.887C635.716 86.5487 617.607 68.44 595.269 68.44C572.931 68.44 554.822 86.5487 554.822 108.887C554.822 131.225 572.931 149.334 595.269 149.334ZM595.269 130.424C607.163 130.424 616.805 120.781 616.805 108.887C616.805 96.9925 607.163 87.3502 595.269 87.3502C583.374 87.3502 573.732 96.9925 573.732 108.887C573.732 120.781 583.374 130.424 595.269 130.424Z" fill="#0B0B0D"/>
<path d="M376.265 69.4906C374.524 69.4906 373.113 70.9016 373.113 72.6423V145.131C373.113 146.872 374.524 148.283 376.265 148.283H388.871C390.612 148.283 392.023 146.872 392.023 145.131V116.498L417.023 147.124C417.621 147.858 418.518 148.283 419.464 148.283H435.738C438.395 148.283 439.86 145.197 438.179 143.138L407.674 105.768L435.548 74.7488C437.371 72.7201 435.931 69.4906 433.204 69.4906H416.255C415.361 69.4906 414.508 69.8705 413.911 70.5357L392.023 94.893V72.6423C392.023 70.9016 390.612 69.4906 388.871 69.4906H376.265Z" fill="#0B0B0D"/>
<path d="M657.203 72.6423C657.203 70.9016 658.614 69.4906 660.354 69.4906H672.961C674.702 69.4906 676.113 70.9016 676.113 72.6423V129.373H714.848C716.588 129.373 718 130.784 718 132.525V145.131C718 146.872 716.588 148.283 714.848 148.283H660.354C658.614 148.283 657.203 146.872 657.203 145.131V72.6423Z" fill="#0B0B0D"/>
<path fill-rule="evenodd" clip-rule="evenodd" d="M179.498 84.0664C179.493 60.8328 160.656 42 137.421 42C114.183 42 95.3445 60.8384 95.3445 84.0768C95.3445 84.0844 95.3445 84.092 95.3445 84.0996C75.1497 88.3928 60 106.329 60 127.804C60 152.48 80.0044 172.485 104.681 172.485L104.786 172.485C104.823 172.485 104.859 172.485 104.896 172.485H170.104C170.141 172.485 170.177 172.485 170.214 172.485L170.319 172.485C194.996 172.485 215 152.48 215 127.804C215 106.273 199.772 88.2997 179.498 84.0664ZM160.984 84.0991C160.984 84.0917 160.984 84.0842 160.984 84.0768C160.984 71.0633 150.435 60.5138 137.421 60.5138C124.411 60.5138 113.864 71.0575 113.858 84.066C123.111 85.9976 131.313 90.7913 137.496 97.4791L137.5 97.4754L137.504 97.4791C143.652 90.8293 151.796 86.052 160.984 84.0991ZM78.5138 127.804C78.5138 136.25 82.5153 143.761 88.7259 148.546C89.5571 146.521 90.8147 144.584 92.5425 142.84L124.443 110.651C119.645 105.128 112.571 101.636 104.681 101.636C90.2293 101.636 78.5138 113.352 78.5138 127.804ZM182.458 142.84L150.557 110.651C155.355 105.128 162.429 101.636 170.319 101.636C184.771 101.636 196.486 113.352 196.486 127.804C196.486 136.25 192.485 143.761 186.274 148.546C185.443 146.521 184.185 144.584 182.458 142.84ZM137.5 123.777L107.577 153.971H167.423L137.5 123.777Z" fill="url(#paint0_radial_6442_8710)"/>
<mask id="mask0_6442_8710" style="mask-type:alpha" maskUnits="userSpaceOnUse" x="60" y="42" width="155" height="131">
<path fill-rule="evenodd" clip-rule="evenodd" d="M179.498 84.0664C179.493 60.8328 160.656 42 137.421 42C114.183 42 95.3445 60.8384 95.3445 84.0768C95.3445 84.0844 95.3445 84.092 95.3445 84.0996C75.1497 88.3928 60 106.329 60 127.804C60 152.48 80.0044 172.485 104.681 172.485L104.786 172.485C104.823 172.485 104.859 172.485 104.896 172.485H170.104C170.141 172.485 170.177 172.485 170.214 172.485L170.319 172.485C194.996 172.485 215 152.48 215 127.804C215 106.273 199.772 88.2997 179.498 84.0664ZM160.984 84.0991C160.984 84.0917 160.984 84.0842 160.984 84.0768C160.984 71.0633 150.435 60.5138 137.421 60.5138C124.411 60.5138 113.864 71.0575 113.858 84.066C123.111 85.9976 131.313 90.7913 137.496 97.4791L137.5 97.4754L137.504 97.4791C143.652 90.8293 151.796 86.052 160.984 84.0991ZM78.5138 127.804C78.5138 136.25 82.5153 143.761 88.7259 148.546C89.5571 146.521 90.8147 144.584 92.5425 142.84L124.443 110.651C119.645 105.128 112.571 101.636 104.681 101.636C90.2293 101.636 78.5138 113.352 78.5138 127.804ZM182.458 142.84L150.557 110.651C155.355 105.128 162.429 101.636 170.319 101.636C184.771 101.636 196.486 113.352 196.486 127.804C196.486 136.25 192.485 143.761 186.274 148.546C185.443 146.521 184.185 144.584 182.458 142.84ZM137.5 123.777L107.577 153.971H167.423L137.5 123.777Z" fill="url(#paint1_radial_6442_8710)"/>
</mask>
<g mask="url(#mask0_6442_8710)">
<path d="M120.028 79.0276L137.841 97.1205L113.857 121.335L95.7643 103.39L120.028 79.0276Z" fill="url(#paint2_linear_6442_8710)"/>
<path d="M197.591 63.0386H145.837V90.4207C152.868 85.8064 161.28 83.1225 170.319 83.1225C180.587 83.1225 190.046 86.586 197.591 92.4085V63.0386Z" fill="url(#paint3_linear_6442_8710)"/>
<path d="M169.924 172.471C179.632 172.097 187.385 164.28 187.385 154.691C187.385 150.322 185.776 146.321 183.105 143.224H217.373V172.485H169.924V172.471Z" fill="url(#paint4_linear_6442_8710)"/>
</g>
<defs>
<radialGradient id="paint0_radial_6442_8710" cx="0" cy="0" r="1" gradientUnits="userSpaceOnUse" gradientTransform="translate(67.5738 164.024) rotate(-30.1602) scale(144.048 170.989)">
<stop stop-color="#2BCBFF"/>
<stop offset="1" stop-color="#7542FF"/>
</radialGradient>
<radialGradient id="paint1_radial_6442_8710" cx="0" cy="0" r="1" gradientUnits="userSpaceOnUse" gradientTransform="translate(67.5738 164.024) rotate(-30.1602) scale(144.048 170.989)">
<stop stop-color="#2BCBFF"/>
<stop offset="1" stop-color="#7542FF"/>
</radialGradient>
<linearGradient id="paint2_linear_6442_8710" x1="116.803" y1="94.5959" x2="130.688" y2="105.325" gradientUnits="userSpaceOnUse">
<stop stop-opacity="0"/>
<stop offset="1" stop-opacity="0.2"/>
</linearGradient>
<linearGradient id="paint3_linear_6442_8710" x1="171.714" y1="67.2463" x2="171.714" y2="84.7081" gradientUnits="userSpaceOnUse">
<stop stop-opacity="0"/>
<stop offset="1" stop-opacity="0.3"/>
</linearGradient>
<linearGradient id="paint4_linear_6442_8710" x1="198.433" y1="151.399" x2="178.236" y2="165.915" gradientUnits="userSpaceOnUse">
<stop stop-opacity="0"/>
<stop offset="1" stop-opacity="0.4"/>
</linearGradient>
</defs>
</svg>
