<svg width="128" height="128" viewBox="0 0 128 128" fill="none" xmlns="http://www.w3.org/2000/svg">
<path d="M26.0619 14.8825C53.1908 -6.07031 92.1676 -1.06172 113.117 26.0661C134.063 53.1871 129.059 92.1522 101.945 113.105C74.8238 134.062 35.844 129.062 14.8871 101.938C-6.06593 74.8132 -1.06313 35.8355 26.0619 14.8825ZM26.4398 98.0603L36.4554 98.7087L31.9632 94.2165L31.0941 93.403L26.4398 98.0603ZM51.3002 72.9743L32.4925 92.0583L38.5941 98.2107C38.6509 98.2616 38.7248 98.2897 38.8011 98.2898C38.8774 98.2897 38.9514 98.2616 39.0082 98.2107C39.0462 98.1579 39.0668 98.094 39.0668 98.029C39.0667 97.964 39.0462 97.9001 39.0082 97.8474L37.973 93.3474C37.8916 93.0248 37.9243 92.6837 38.0658 92.3825C38.2075 92.0813 38.4498 91.8382 38.7504 91.695C48.0115 87.211 56.6942 81.6177 64.6058 75.0388L61.0277 71.4626L51.3002 72.9743ZM62.5355 69.9216L66.3119 73.695C75.6518 64.8711 84.6092 55.7895 86.2992 49.0876L62.5355 69.9216ZM54.1117 70.4353L59.4964 69.7761L58.4281 68.6814L58.35 68.6696C58.3429 68.642 58.3373 68.6138 58.3324 68.5857L57.1644 67.3904L57.1605 67.3864L54.1117 70.4353ZM83.305 42.3894C82.5396 42.3892 81.8047 42.6943 81.2621 43.2341L58.3754 65.9138L60.9925 68.531L85.2425 47.4245C85.5399 47.1658 85.7812 46.8479 85.9505 46.4919C86.1197 46.1361 86.2138 45.749 86.2269 45.3552C86.2395 44.9598 86.1683 44.5654 86.017 44.1999C85.8654 43.8343 85.6368 43.5049 85.348 43.2341C84.8055 42.6937 84.0707 42.3895 83.305 42.3894ZM45.5248 67.3894L55.1546 65.3298L51.641 61.8171L51.3675 61.5466L45.5248 67.3894ZM79.3402 39.4294C78.2458 39.4062 77.1684 39.7048 76.2425 40.2888C71.7466 42.3038 64.5137 48.4525 52.6859 60.2243L57.1625 64.7009L79.9691 41.9958C80.6949 41.272 81.6362 40.802 82.6507 40.656C81.7091 39.9002 80.5469 39.4695 79.3402 39.4294ZM91.8636 25.0818C88.1808 25.1018 84.8834 27.317 83.5004 30.7068C82.1174 34.0937 82.8676 37.9974 85.4535 40.5974C86.7378 41.8889 88.3821 42.7628 90.1712 43.1042C91.9605 43.4455 93.8122 43.2385 95.4818 42.5105L89.3812 36.4109H89.3793C89.2817 36.333 89.203 36.2342 89.1488 36.1218C89.0946 36.0093 89.0668 35.8853 89.0668 35.7605C89.0752 35.554 89.1598 35.3577 89.305 35.2107C89.3278 35.1764 89.3537 35.1436 89.3812 35.113L97.4496 26.9958C95.8461 25.7661 93.8843 25.094 91.8636 25.0818ZM91.6097 35.4714L91.3441 35.737L92.307 36.6999L97.2308 41.5466C97.6172 41.2748 97.9844 40.9758 98.3285 40.6521C100.046 38.939 101.012 36.6137 101.016 34.1882C101.021 32.1176 100.303 30.1094 98.9837 28.5134L98.9828 28.5114L91.6097 35.4714ZM98.0677 32.738C98.241 32.6611 98.4368 32.6496 98.6175 32.7068C98.7993 32.7642 98.9537 32.8867 99.0511 33.0505V33.0466C99.3373 33.6559 99.4458 34.3345 99.3636 35.0027C99.2813 35.6706 99.0116 36.3023 98.5863 36.8239C98.504 36.9161 98.3977 36.9847 98.2796 37.0212C98.1613 37.0577 98.0345 37.0609 97.9144 37.031C97.7812 37.0819 97.6336 37.0818 97.5004 37.031C97.3754 36.899 97.309 36.7228 97.305 36.5388C97.3012 36.4484 97.3174 36.3581 97.3509 36.2741C97.3846 36.1902 97.4353 36.1133 97.5004 36.0505C97.755 35.7249 97.9139 35.3344 97.9593 34.9236C98.0047 34.5124 97.9349 34.0959 97.7572 33.7224C97.7125 33.6372 97.6847 33.5438 97.6761 33.448C97.6676 33.3522 97.6785 33.2555 97.7074 33.1638C97.7664 32.9799 97.8963 32.8268 98.0677 32.738Z" fill="black"/>
</svg>
